<?xml version="1.0" standalone="no"?>
<!DOCTYPE svg PUBLIC "-//W3C//DTD SVG 20010904//EN"
 "http://www.w3.org/TR/2001/REC-SVG-20010904/DTD/svg10.dtd">
<svg version="1.0" xmlns="http://www.w3.org/2000/svg"
 width="500.000000pt" height="500.000000pt" viewBox="0 0 500.000000 500.000000"
 preserveAspectRatio="xMidYMid meet">
<metadata>
Created by potrace 1.11, written by Peter Selinger 2001-2013
</metadata>
<g transform="translate(0.000000,500.000000) scale(0.100000,-0.100000)"
fill="#000000" stroke="none">
<path d="M5 4988 c-3 -7 -4 -1131 -3 -2498 l3 -2485 940 0 c1061 0 1235 2
1235 17 0 6 6 8 14 5 20 -8 28 4 14 22 -7 9 -9 13 -4 9 5 -4 17 3 27 16 10 13
30 27 44 30 14 4 23 11 20 16 -3 6 -1 18 4 27 6 11 11 13 11 5 0 -7 5 -10 11
-7 6 4 8 14 5 22 -3 8 -1 11 4 8 6 -3 10 -1 10 5 0 7 6 10 14 7 20 -8 28 4 14
22 -7 9 -9 13 -4 9 5 -4 17 3 27 16 10 13 30 27 44 30 14 4 23 11 20 16 -3 6
-1 18 4 27 6 11 11 13 11 5 0 -7 5 -10 11 -7 6 4 8 14 5 22 -3 8 -1 11 4 8 6
-3 10 -1 10 5 0 7 6 10 14 7 20 -8 28 4 14 22 -7 9 -9 13 -4 9 5 -4 17 3 27
16 10 13 30 27 44 30 14 4 23 11 20 16 -3 6 -1 18 4 27 6 11 11 13 11 5 0 -7
5 -10 11 -7 6 4 8 14 5 22 -3 8 -1 11 4 8 6 -3 10 -1 10 5 0 7 6 10 14 7 20
-8 28 4 14 22 -7 9 -9 13 -4 9 5 -4 17 3 27 16 10 13 30 27 44 30 14 4 23 11
20 16 -3 6 -1 18 4 27 6 11 11 13 11 5 0 -7 5 -10 11 -7 6 4 8 14 5 22 -3 8
-1 11 4 8 6 -3 10 -1 10 5 0 7 6 10 14 7 20 -8 28 4 14 22 -7 9 -9 13 -4 9 5
-4 17 3 27 16 10 13 30 27 44 30 14 4 23 11 20 16 -3 6 -1 18 4 27 6 11 11 13
11 5 0 -7 5 -10 11 -7 6 4 8 14 5 22 -3 8 -1 11 4 8 6 -3 10 -1 10 5 0 7 6 10
14 7 20 -8 28 4 14 22 -7 9 -9 13 -4 9 5 -4 17 3 27 16 10 13 30 27 44 30 14
4 23 11 20 16 -3 6 -1 18 4 27 6 11 11 13 11 5 0 -7 5 -10 11 -7 6 4 8 14 5
22 -3 8 -1 11 4 8 6 -3 10 -1 10 5 0 7 6 10 14 7 20 -8 28 4 14 22 -7 9 -9 13
-4 9 5 -4 17 3 27 16 10 13 30 27 44 30 14 4 23 11 20 16 -3 6 -1 18 4 27 6
11 11 13 11 5 0 -7 5 -10 11 -7 6 4 8 14 5 22 -3 8 -1 11 4 8 6 -3 10 -1 10 5
0 7 6 10 14 7 20 -8 28 4 14 22 -7 9 -9 13 -4 9 5 -4 17 3 27 16 10 13 30 27
44 30 14 4 23 11 20 16 -3 6 -1 18 4 27 6 11 11 13 11 5 0 -7 5 -10 11 -7 6 4
8 14 5 22 -3 8 -1 11 4 8 6 -3 10 -1 10 5 0 7 6 10 14 7 20 -8 28 4 14 22 -7
9 -9 13 -4 9 5 -4 17 3 27 16 10 13 30 27 44 30 14 4 23 11 20 16 -3 6 -1 18
4 27 6 11 11 13 11 5 0 -7 5 -10 11 -7 6 4 8 14 5 22 -3 8 -1 11 4 8 6 -3 10
-1 10 5 0 7 6 10 14 7 20 -8 28 4 13 21 -9 13 -9 14 1 8 6 -4 12 -3 12 3 0 6
6 9 13 7 6 -1 9 -1 4 1 -4 3 -5 8 -3 11 2 4 -51 5 -117 4 -178 -5 -317 22
-468 92 -251 116 -447 350 -521 621 -31 116 -31 374 0 490 99 363 394 625 787
700 90 17 276 19 375 5 168 -24 380 -112 513 -211 l68 -51 -28 -37 c-15 -20
-69 -89 -121 -154 l-93 -117 -39 32 c-126 108 -313 178 -475 178 -265 0 -496
-181 -561 -440 -23 -89 -15 -261 16 -347 91 -258 352 -420 618 -383 81 11 184
42 255 76 l37 18 0 248 0 248 185 0 185 0 0 -181 0 -182 20 26 c11 13 31 28
45 31 14 4 23 11 20 16 -3 6 -1 18 4 27 6 11 11 13 11 5 0 -7 5 -10 11 -7 6 4
8 14 5 22 -3 8 -1 11 4 8 6 -3 10 -1 10 5 0 7 6 10 14 7 20 -8 28 4 14 22 -7
9 -9 13 -4 9 5 -4 17 3 27 16 10 13 30 27 44 30 14 4 23 11 20 16 -3 6 -1 18
4 27 6 11 11 13 11 5 0 -7 5 -10 11 -7 6 4 8 14 5 22 -3 8 -1 11 4 8 6 -3 10
-1 10 5 0 7 6 10 14 7 20 -8 28 4 14 22 -7 9 -9 13 -4 9 5 -4 17 3 27 16 10
13 30 27 44 30 14 4 23 11 20 16 -3 6 -1 18 4 27 6 11 11 13 11 5 0 -7 5 -10
11 -7 6 4 8 14 5 22 -3 8 -1 11 4 8 6 -3 10 -1 10 5 0 7 6 10 14 7 20 -8 28 4
14 22 -7 9 -9 13 -4 9 5 -4 17 3 27 16 10 13 30 27 44 30 14 4 23 11 20 16 -3
6 -1 18 4 27 6 11 11 13 11 5 0 -7 5 -10 11 -7 6 4 8 14 5 22 -3 8 -1 11 4 8
6 -3 10 -1 10 5 0 7 6 10 14 7 20 -8 28 4 14 22 -7 9 -8 13 -4 9 5 -5 16 1 23
12 8 11 19 17 25 14 7 -4 8 -2 4 4 -4 7 -3 12 2 12 15 0 17 185 17 1235 l0
940 -2493 3 c-1989 2 -2494 0 -2497 -10z m1196 -1988 c129 -225 237 -410 240
-410 3 0 109 185 234 410 l229 410 214 0 214 0 -29 -52 c-17 -29 -170 -314
-341 -633 l-312 -581 0 -297 0 -297 -210 0 -210 0 0 294 0 295 -334 618 c-184
340 -338 626 -341 636 -7 16 7 17 203 17 l209 0 234 -410z"/>
</g>
</svg>
